<svg xmlns="http://www.w3.org/2000/svg" viewBox="0 0 502 100"><g><rect width="100" height="100" rx="30" fill="#0E1C28"/><path d="M26 57 L45 74 L70 43" stroke="#00E17E" stroke-width="13" stroke-linecap="round" stroke-linejoin="round" fill="none"/><path d="M0 -9 L13 0 L0 9 Z" fill="#00E17E" transform="translate(74,38) rotate(-51)"/></g><g fill="#0E1C28"><path transform="translate(122.00,72.02) scale(0.091000,-0.091000)" d="M303.1324462890625 -11.277099609375Q220.385498046875 -11.277099609375 158.59637451171875 19.90362548828125Q96.8072509765625 51.0843505859375 62.93377685546875 109.40362548828125Q29.060302734375 167.722900390625 29.060302734375 247Q29.060302734375 306.6385498046875 48.15667724609375 354.09637451171875Q67.2530517578125 401.55419921875 103.44580078125 435.01202392578125Q139.6385498046875 468.4698486328125 190.15057373046875 485.9698486328125Q240.66259765625 503.4698486328125 303.1324462890625 503.4698486328125Q332.3011474609375 503.4698486328125 364.09637451171875 497.66259765625Q395.8916015625 491.8553466796875 429.8916015625 477.2408447265625Q453.55419921875 467.87939453125 463.34332275390625 449.4095458984375Q473.1324462890625 430.939697265625 471.72882080078125 410.05419921875Q470.3251953125 389.168701171875 459.548095703125 372.283203125Q448.77099609375 355.397705078125 430.62042236328125 349.06640625Q412.4698486328125 342.735107421875 389.0843505859375 353.6507568359375Q372.831298828125 361.5423583984375 355.25897216796875 365.4881591796875Q337.6866455078125 369.4339599609375 321.7950439453125 369.4339599609375Q295.1805419921875 369.4339599609375 274.650390625 361.16888427734375Q254.1202392578125 352.90380859375 240.13226318359375 337.235107421875Q226.144287109375 321.56640625 218.74066162109375 298.951904296875Q211.3370361328125 276.33740234375 211.3370361328125 246.6385498046875Q211.3370361328125 188.602294921875 240.13226318359375 155.6805419921875Q268.927490234375 122.7587890625 321.7950439453125 122.7587890625Q337.6866455078125 122.7587890625 355.0782470703125 126.20458984375Q372.4698486328125 129.650390625 389.0843505859375 138.1805419921875Q412.4698486328125 149.09619140625 430.439697265625 142.58416748046875Q448.4095458984375 136.0721435546875 459.00592041015625 119.1866455078125Q469.602294921875 102.3011474609375 470.64447021484375 81.4156494140625Q471.6866455078125 60.5301513671875 461.716796875 42.060302734375Q451.7469482421875 23.5904541015625 428.44580078125 14.5904541015625Q394.8072509765625 0.33740234375 363.55419921875 -5.4698486328125Q332.3011474609375 -11.277099609375 303.1324462890625 -11.277099609375Z"/><path transform="translate(161.95,72.02) scale(0.091000,-0.091000)" d="M222.8072509765625 -11.277099609375Q165.9759521484375 -11.277099609375 122.24102783203125 9.8614501953125Q78.506103515625 31 54.04827880859375 67.59637451171875Q29.5904541015625 104.1927490234375 29.5904541015625 150.7469482421875Q29.5904541015625 204.7469482421875 57.5904541015625 235.92767333984375Q85.5904541015625 267.1083984375 147.951904296875 280.78912353515625Q210.3133544921875 294.4698486328125 313.12060546875 294.4698486328125H368.22900390625V210.33740234375H312.843505859375Q273.831298828125 210.33740234375 248.64447021484375 204.65667724609375Q223.4576416015625 198.9759521484375 211.46966552734375 187.668701171875Q199.481689453125 176.3614501953125 199.481689453125 158.0240478515625Q199.481689453125 134.602294921875 215.77691650390625 119.66851806640625Q232.0721435546875 104.7347412109375 263.493896484375 104.7347412109375Q288.1927490234375 104.7347412109375 307.62652587890625 115.764892578125Q327.060302734375 126.7950439453125 338.8675537109375 146.45172119140625Q350.6748046875 166.1083984375 350.6748046875 192.168701171875V307.8072509765625Q350.6748046875 344.397705078125 332.506103515625 359.05438232421875Q314.33740234375 373.7110595703125 269.3614501953125 373.7110595703125Q244.831298828125 373.7110595703125 215.16259765625 368.30743408203125Q185.493896484375 362.90380859375 147.8553466796875 349.0965576171875Q121.1927490234375 339.4580078125 101.90362548828125 346.33148193359375Q82.614501953125 353.2049560546875 72.37957763671875 369.85552978515625Q62.1446533203125 386.506103515625 62.46392822265625 406.614501953125Q62.783203125 426.722900390625 75.2530517578125 445.05419921875Q87.722900390625 463.385498046875 114.385498046875 472.939697265625Q161.66259765625 490.66259765625 202.56622314453125 497.06622314453125Q243.4698486328125 503.4698486328125 277.1927490234375 503.4698486328125Q359.4095458984375 503.4698486328125 412.61431884765625 479.87347412109375Q465.819091796875 456.277099609375 492.33111572265625 407.62652587890625Q518.8431396484375 358.9759521484375 518.8431396484375 283.22900390625V80.9034423828125Q518.8431396484375 37.1324462890625 497.77691650390625 13.92767333984375Q476.710693359375 -9.277099609375 436.5782470703125 -9.277099609375Q396.44580078125 -9.277099609375 374.87957763671875 13.92767333984375Q353.3133544921875 37.1324462890625 353.3133544921875 80.9034423828125V106.55419921875L359.397705078125 93.1446533203125Q354.3133544921875 61.33740234375 336.04827880859375 38.07232666015625Q317.783203125 14.8072509765625 289.01812744140625 1.76507568359375Q260.2530517578125 -11.277099609375 222.8072509765625 -11.277099609375Z"/><path transform="translate(209.54,72.02) scale(0.091000,-0.091000)" d="M239.0240478515625 -11.277099609375Q142.614501953125 -11.277099609375 97.10247802734375 40.37347412109375Q51.5904541015625 92.0240478515625 51.5904541015625 196.156494140625V624.4580078125Q51.5904541015625 668.22900390625 74.614501953125 691.2530517578125Q97.6385498046875 714.277099609375 140.4095458984375 714.277099609375Q183.1805419921875 714.277099609375 206.38531494140625 691.2530517578125Q229.590087890625 668.22900390625 229.590087890625 624.4580078125V201.5179443359375Q229.590087890625 165.09619140625 244.30096435546875 148.20458984375Q259.0118408203125 131.31298828125 281.602294921875 131.31298828125Q288.9637451171875 131.31298828125 296.602294921875 132.77081298828125Q304.2408447265625 134.2286376953125 312.5179443359375 134.590087890625Q330.3492431640625 135.31298828125 338.5419921875 122.30096435546875Q346.7347412109375 109.2889404296875 346.7347412109375 68.7950439453125Q346.7347412109375 34.216796875 332.9034423828125 16.70477294921875Q319.0721435546875 -0.8072509765625 290.3251953125 -6.3614501953125Q282.2408447265625 -7.3614501953125 267.09027099609375 -9.31927490234375Q251.939697265625 -11.277099609375 239.0240478515625 -11.277099609375Z"/><path transform="translate(237.12,72.02) scale(0.091000,-0.091000)" d="M239.0240478515625 -11.277099609375Q142.614501953125 -11.277099609375 97.10247802734375 40.37347412109375Q51.5904541015625 92.0240478515625 51.5904541015625 196.156494140625V624.4580078125Q51.5904541015625 668.22900390625 74.614501953125 691.2530517578125Q97.6385498046875 714.277099609375 140.4095458984375 714.277099609375Q183.1805419921875 714.277099609375 206.38531494140625 691.2530517578125Q229.590087890625 668.22900390625 229.590087890625 624.4580078125V201.5179443359375Q229.590087890625 165.09619140625 244.30096435546875 148.20458984375Q259.0118408203125 131.31298828125 281.602294921875 131.31298828125Q288.9637451171875 131.31298828125 296.602294921875 132.77081298828125Q304.2408447265625 134.2286376953125 312.5179443359375 134.590087890625Q330.3492431640625 135.31298828125 338.5419921875 122.30096435546875Q346.7347412109375 109.2889404296875 346.7347412109375 68.7950439453125Q346.7347412109375 34.216796875 332.9034423828125 16.70477294921875Q319.0721435546875 -0.8072509765625 290.3251953125 -6.3614501953125Q282.2408447265625 -7.3614501953125 267.09027099609375 -9.31927490234375Q251.939697265625 -11.277099609375 239.0240478515625 -11.277099609375Z"/><path transform="translate(264.69,72.02) scale(0.091000,-0.091000)" d="M140.4095458984375 -8.9156494140625Q97.6385498046875 -8.9156494140625 74.614501953125 16.1083984375Q51.5904541015625 41.1324462890625 51.5904541015625 87.819091796875V404.3736572265625Q51.5904541015625 451.4217529296875 74.614501953125 476.26507568359375Q97.6385498046875 501.1083984375 140.4095458984375 501.1083984375Q183.1805419921875 501.1083984375 206.38531494140625 476.26507568359375Q229.590087890625 451.4217529296875 229.590087890625 404.3736572265625V87.819091796875Q229.590087890625 41.1324462890625 206.88531494140625 16.1083984375Q184.1805419921875 -8.9156494140625 140.4095458984375 -8.9156494140625ZM140.4095458984375 571.7591552734375Q92.6385498046875 571.7591552734375 67.07232666015625 594.0482788085938Q41.506103515625 616.33740234375 41.506103515625 657.55419921875Q41.506103515625 699.1324462890625 67.07232666015625 721.2408447265625Q92.6385498046875 743.3492431640625 140.4095458984375 743.3492431640625Q188.5419921875 743.3492431640625 213.927490234375 721.2408447265625Q239.31298828125 699.1324462890625 239.31298828125 657.55419921875Q239.31298828125 616.33740234375 213.927490234375 594.0482788085938Q188.5419921875 571.7591552734375 140.4095458984375 571.7591552734375Z"/><path transform="translate(286.16,72.02) scale(0.091000,-0.091000)" d="M310.0721435546875 -11.277099609375Q235.493896484375 -11.277099609375 186.56622314453125 12.0Q137.6385498046875 35.277099609375 113.76507568359375 81.6083984375Q89.8916015625 127.939697265625 89.8916015625 197.9637451171875V361.1568603515625H56.4095458984375Q24.1083984375 361.1568603515625 6.31927490234375 378.126708984375Q-11.4698486328125 395.0965576171875 -11.4698486328125 426.6748046875Q-11.4698486328125 458.614501953125 6.31927490234375 475.40362548828125Q24.1083984375 492.1927490234375 56.4095458984375 492.1927490234375H89.8916015625V554.4580078125Q89.8916015625 598.22900390625 113.09637451171875 621.2530517578125Q136.3011474609375 644.277099609375 179.0721435546875 644.277099609375Q221.8431396484375 644.277099609375 244.8671875 621.2530517578125Q267.8912353515625 598.22900390625 267.8912353515625 554.4580078125V492.1927490234375H349.6263427734375Q382.5660400390625 492.1927490234375 400.035888671875 475.40362548828125Q417.5057373046875 458.614501953125 417.5057373046875 426.6748046875Q417.5057373046875 395.0965576171875 400.035888671875 378.126708984375Q382.5660400390625 361.1568603515625 349.6263427734375 361.1568603515625H267.8912353515625V203.6866455078125Q267.8912353515625 167.1805419921875 285.37921142578125 149.5660400390625Q302.8671875 131.9515380859375 340.927490234375 131.9515380859375Q354.7347412109375 131.9515380859375 367.7347412109375 134.9515380859375Q380.7347412109375 137.9515380859375 392.0118408203125 138.31298828125Q407.8431396484375 139.31298828125 418.07806396484375 128.57806396484375Q428.31298828125 117.8431396484375 428.31298828125 80.98779296875Q428.31298828125 51.4095458984375 419.2587890625 30.8011474609375Q410.20458984375 10.1927490234375 386.819091796875 1Q372.5419921875 -4.277099609375 348.66851806640625 -7.777099609375Q324.7950439453125 -11.277099609375 310.0721435546875 -11.277099609375Z"/></g><g fill="#00B868"><path transform="translate(320.84,72.02) scale(0.091000,-0.091000)" d="M140.4095458984375 -9.277099609375Q97.6385498046875 -9.277099609375 74.614501953125 13.92767333984375Q51.5904541015625 37.1324462890625 51.5904541015625 80.9034423828125V411.6507568359375Q51.5904541015625 455.4217529296875 74.29522705078125 478.44580078125Q97 501.4698486328125 138.77099609375 501.4698486328125Q180.5419921875 501.4698486328125 202.927490234375 478.44580078125Q225.31298828125 455.4217529296875 225.31298828125 411.6507568359375V365.3614501953125L214.31298828125 406.3251953125Q238.2286376953125 452.939697265625 282.81298828125 478.20477294921875Q327.3973388671875 503.4698486328125 383.8431396484375 503.4698486328125Q442.8431396484375 503.4698486328125 480.8431396484375 480.51202392578125Q518.8431396484375 457.55419921875 537.8431396484375 410.5Q556.8431396484375 363.44580078125 556.8431396484375 290.9759521484375V80.9034423828125Q556.8431396484375 37.1324462890625 533.819091796875 13.92767333984375Q510.7950439453125 -9.277099609375 468.0240478515625 -9.277099609375Q425.2530517578125 -9.277099609375 402.04827880859375 13.92767333984375Q378.843505859375 37.1324462890625 378.843505859375 80.9034423828125V283.6988525390625Q378.843505859375 328.56640625 363.40972900390625 347.86163330078125Q347.9759521484375 367.1568603515625 317.66259765625 367.1568603515625Q277.98779296875 367.1568603515625 253.7889404296875 341.5965576171875Q229.590087890625 316.0362548828125 229.590087890625 273.0843505859375V80.9034423828125Q229.590087890625 -9.277099609375 140.4095458984375 -9.277099609375Z"/><path transform="translate(371.89,72.02) scale(0.091000,-0.091000)" d="M300.77099609375 -11.277099609375Q219.0240478515625 -11.277099609375 157.9156494140625 19.722900390625Q96.8072509765625 50.722900390625 62.93377685546875 108.8614501953125Q29.060302734375 167 29.060302734375 246.277099609375Q29.060302734375 305.9156494140625 48.15667724609375 353.37347412109375Q67.2530517578125 400.831298828125 103.12652587890625 434.65057373046875Q139 468.4698486328125 189.15057373046875 485.9698486328125Q239.3011474609375 503.4698486328125 300.77099609375 503.4698486328125Q383.156494140625 503.4698486328125 443.94561767578125 472.4698486328125Q504.7347412109375 441.4698486328125 538.6082153320312 383.831298828125Q572.481689453125 326.1927490234375 572.481689453125 246.277099609375Q572.481689453125 186.6385498046875 553.3853149414062 139.0Q534.2889404296875 91.3614501953125 498.41546630859375 57.54217529296875Q462.5419921875 23.722900390625 412.39141845703125 6.222900390625Q362.2408447265625 -11.277099609375 300.77099609375 -11.277099609375ZM300.77099609375 120.1202392578125Q328.1927490234375 120.1202392578125 348.84942626953125 133.33111572265625Q369.506103515625 146.5419921875 381.49407958984375 174.37939453125Q393.4820556640625 202.216796875 393.4820556640625 246.277099609375Q393.4820556640625 312.8675537109375 367.46392822265625 342.47003173828125Q341.44580078125 372.072509765625 300.77099609375 372.072509765625Q273.98779296875 372.072509765625 253.0118408203125 359.0423583984375Q232.035888671875 346.01220703125 220.04791259765625 318.49407958984375Q208.0599365234375 290.9759521484375 208.0599365234375 246.277099609375Q208.0599365234375 180.048095703125 234.07806396484375 150.08416748046875Q260.09619140625 120.1202392578125 300.77099609375 120.1202392578125Z"/><path transform="translate(422.57,72.02) scale(0.091000,-0.091000)" d="M266.1324462890625 -9.277099609375Q231.55419921875 -9.277099609375 206.84942626953125 7.37347412109375Q182.1446533203125 24.0240478515625 167.3133544921875 59.3251953125L30.614501953125 387.8194580078125Q17.783203125 418.843505859375 21.9217529296875 444.3675537109375Q26.060302734375 469.8916015625 46.48797607421875 485.68072509765625Q66.9156494140625 501.4698486328125 103.4095458984375 501.4698486328125Q133.710693359375 501.4698486328125 153.77691650390625 486.81927490234375Q173.8431396484375 472.168701171875 189.590087890625 430.397705078125L286.3251953125 178.4935302734375H264.602294921875L365.9759521484375 448.614501953125Q375.8916015625 475.722900390625 393.222900390625 488.59637451171875Q410.55419921875 501.4698486328125 438.3011474609375 501.4698486328125Q466.6866455078125 501.4698486328125 483.87939453125 488.09637451171875Q501.0721435546875 474.722900390625 510.6263427734375 448.614501953125L611.9156494140625 178.4935302734375H594.1083984375L690.56640625 435.951904296875Q705.0362548828125 473.8072509765625 727.2410278320312 487.6385498046875Q749.44580078125 501.4698486328125 774.1927490234375 501.4698486328125Q807.77099609375 501.4698486328125 825.87939453125 485.31927490234375Q843.98779296875 469.168701171875 846.6263427734375 443.32537841796875Q849.264892578125 417.4820556640625 836.43359375 387.180908203125L701.373291015625 59.9637451171875Q686.9034423828125 25.0240478515625 662.0179443359375 7.87347412109375Q637.1324462890625 -9.277099609375 602.55419921875 -9.277099609375Q567.9759521484375 -9.277099609375 543.4097290039062 7.87347412109375Q518.843505859375 25.0240478515625 504.3736572265625 59.9637451171875L394.44580078125 335.4461669921875H467.4095458984375L363.035888671875 61.602294921875Q349.20458984375 25.66259765625 325.13836669921875 8.1927490234375Q301.0721435546875 -9.277099609375 266.1324462890625 -9.277099609375Z"/></g></svg>